<svg width="60" height="60" viewBox="0 0 60 60" fill="none" xmlns="http://www.w3.org/2000/svg">
<path d="M30 17.9822C23.3496 17.9822 17.9825 23.3494 17.9825 29.9998C17.9825 36.6502 23.3496 42.0174 30 42.0174C36.6504 42.0174 42.0176 36.6502 42.0176 29.9998C42.0176 23.3494 36.6504 17.9822 30 17.9822ZM30 37.8103C25.6993 37.8103 22.1895 34.3006 22.1895 29.9998C22.1895 25.699 25.6993 22.1892 30 22.1892C34.3008 22.1892 37.8106 25.699 37.8106 29.9998C37.8106 34.3006 34.3008 37.8103 30 37.8103ZM42.5098 14.6892C40.9571 14.6892 39.7032 15.9431 39.7032 17.4959C39.7032 19.0486 40.9571 20.3025 42.5098 20.3025C44.0625 20.3025 45.3164 19.0545 45.3164 17.4959C45.3169 17.1272 45.2446 16.762 45.1037 16.4213C44.9629 16.0806 44.7561 15.771 44.4954 15.5103C44.2347 15.2495 43.9251 15.0428 43.5844 14.9019C43.2437 14.7611 42.8785 14.6888 42.5098 14.6892ZM53.4258 29.9998C53.4258 26.7654 53.4551 23.5603 53.2735 20.3318C53.0918 16.5818 52.2364 13.2537 49.4942 10.5115C46.7461 7.76346 43.4239 6.91385 39.6739 6.73221C36.4395 6.55057 33.2344 6.57987 30.0059 6.57987C26.7715 6.57987 23.5664 6.55057 20.3379 6.73221C16.5879 6.91385 13.2598 7.76932 10.5176 10.5115C7.76957 13.2596 6.91996 16.5818 6.73832 20.3318C6.55667 23.5662 6.58597 26.7713 6.58597 29.9998C6.58597 33.2283 6.55667 36.4392 6.73832 39.6678C6.91996 43.4178 7.77542 46.7459 10.5176 49.4881C13.2657 52.2361 16.5879 53.0857 20.3379 53.2674C23.5723 53.449 26.7774 53.4197 30.0059 53.4197C33.2403 53.4197 36.4454 53.449 39.6739 53.2674C43.4239 53.0857 46.752 52.2303 49.4942 49.4881C52.2422 46.74 53.0918 43.4178 53.2735 39.6678C53.461 36.4392 53.4258 33.2342 53.4258 29.9998ZM48.2696 43.8162C47.8418 44.8826 47.3262 45.6795 46.5 46.4998C45.6739 47.326 44.8829 47.8416 43.8164 48.2693C40.7344 49.4939 33.4161 49.2185 30 49.2185C26.584 49.2185 19.2598 49.4939 16.1778 48.2752C15.1114 47.8474 14.3145 47.3318 13.4942 46.5056C12.668 45.6795 12.1524 44.8885 11.7246 43.8221C10.5059 40.7342 10.7813 33.4158 10.7813 29.9998C10.7813 26.5838 10.5059 19.2596 11.7246 16.1775C12.1524 15.1111 12.668 14.3142 13.4942 13.4939C14.3203 12.6736 15.1114 12.1521 16.1778 11.7244C19.2598 10.5056 26.584 10.781 30 10.781C33.4161 10.781 40.7403 10.5056 43.8223 11.7244C44.8887 12.1521 45.6856 12.6678 46.5059 13.4939C47.3321 14.3201 47.8477 15.1111 48.2754 16.1775C49.4942 19.2596 49.2188 26.5838 49.2188 29.9998C49.2188 33.4158 49.4942 40.7342 48.2696 43.8162Z" fill="#484848"/>
</svg>
