<svg width="142" height="24" viewBox="0 0 142 24" fill="none" xmlns="http://www.w3.org/2000/svg">
<path d="M0.26 0.967999H5.524V7.324L10.984 0.967999H16.976L10.62 8.36L17.424 19H11.824L7.372 11.72L5.524 13.792V19H0.26V0.967999ZM22.658 19.28C21.09 19.28 19.8674 18.8413 18.99 17.964C18.1314 17.068 17.702 15.78 17.702 14.1V5.728H22.966V13.68C22.966 14.2773 23.106 14.716 23.386 14.996C23.6847 15.276 24.1327 15.416 24.73 15.416C25.1407 15.416 25.5514 15.3227 25.962 15.136C26.3727 14.9493 26.7087 14.716 26.97 14.436V5.728H32.234V19H27.306L27.166 17.992C25.9527 18.8507 24.45 19.28 22.658 19.28ZM40.4245 19.28C38.6885 19.28 37.4098 18.8507 36.5885 17.992C35.7671 17.1147 35.3565 15.8827 35.3565 14.296V9.62H33.6205V5.728H35.3565V3.012L40.6205 1.752V5.728H43.6725L43.4765 9.62H40.6205V13.904C40.6205 14.464 40.7511 14.8653 41.0125 15.108C41.2925 15.332 41.7311 15.444 42.3285 15.444C42.8698 15.444 43.4205 15.3507 43.9805 15.164V18.664C42.9911 19.0747 41.8058 19.28 40.4245 19.28ZM49.4823 19.28C47.9143 19.28 46.6916 18.8413 45.8143 17.964C44.9556 17.068 44.5263 15.78 44.5263 14.1V5.728H49.7903V13.68C49.7903 14.2773 49.9303 14.716 50.2103 14.996C50.5089 15.276 50.9569 15.416 51.5543 15.416C51.9649 15.416 52.3756 15.3227 52.7863 15.136C53.1969 14.9493 53.5329 14.716 53.7943 14.436V5.728H59.0583V19H54.1303L53.9903 17.992C52.7769 18.8507 51.2743 19.28 49.4823 19.28ZM70.4127 19.28C69.5727 19.28 68.826 19.168 68.1727 18.944C67.538 18.72 66.9407 18.3933 66.3807 17.964L66.1287 19H61.5647V0.127999H66.8287V6.204C67.2767 5.96133 67.7994 5.77467 68.3967 5.644C69.0127 5.51333 69.6287 5.448 70.2447 5.448C74.482 5.448 76.6007 7.716 76.6007 12.252C76.6007 14.5667 76.05 16.3213 74.9487 17.516C73.8474 18.692 72.3354 19.28 70.4127 19.28ZM68.9007 15.472C69.722 15.472 70.31 15.2293 70.6647 14.744C71.038 14.24 71.2247 13.428 71.2247 12.308C71.2247 11.2067 71.038 10.4227 70.6647 9.956C70.2914 9.48933 69.7034 9.256 68.9007 9.256C68.042 9.256 67.3514 9.48933 66.8287 9.956V14.66C67.4074 15.2013 68.098 15.472 68.9007 15.472ZM82.6776 19.28C81.1096 19.28 79.8869 18.8413 79.0096 17.964C78.1509 17.068 77.7216 15.78 77.7216 14.1V5.728H82.9856V13.68C82.9856 14.2773 83.1256 14.716 83.4056 14.996C83.7042 15.276 84.1522 15.416 84.7496 15.416C85.1602 15.416 85.5709 15.3227 85.9816 15.136C86.3922 14.9493 86.7282 14.716 86.9896 14.436V5.728H92.2536V19H87.3256L87.1856 17.992C85.9722 18.8507 84.4696 19.28 82.6776 19.28Z" fill="#404040"/>
<path d="M94.2 9.032H105.54V13.064H94.2V9.032ZM119.458 23.816C117.592 23.816 116.248 23.4333 115.426 22.668C114.624 21.9213 114.213 20.7547 114.194 19.168C111.786 18.888 109.976 18.0013 108.762 16.508C107.549 15.0147 106.942 12.8587 106.942 10.04C106.942 6.75467 107.708 4.37467 109.238 2.9C110.788 1.42533 113.093 0.687999 116.154 0.687999C119.216 0.687999 121.512 1.43467 123.042 2.928C124.592 4.40267 125.366 6.77333 125.366 10.04C125.366 12.8213 124.769 14.9587 123.574 16.452C122.398 17.9267 120.644 18.8227 118.31 19.14C118.31 19.7 118.413 20.0733 118.618 20.26C118.842 20.4653 119.197 20.568 119.682 20.568C120.242 20.568 120.83 20.4747 121.446 20.288V23.536C120.83 23.7227 120.168 23.816 119.458 23.816ZM116.154 14.8C117.498 14.8 118.469 14.4267 119.066 13.68C119.682 12.9147 119.99 11.7013 119.99 10.04C119.99 8.28533 119.692 7.03467 119.094 6.288C118.497 5.54133 117.517 5.168 116.154 5.168C114.792 5.168 113.812 5.54133 113.214 6.288C112.617 7.03467 112.318 8.28533 112.318 10.04C112.318 11.7013 112.617 12.9147 113.214 13.68C113.83 14.4267 114.81 14.8 116.154 14.8ZM132.142 19.28C130.574 19.28 129.352 18.8413 128.474 17.964C127.616 17.068 127.186 15.78 127.186 14.1V5.728H132.45V13.68C132.45 14.2773 132.59 14.716 132.87 14.996C133.169 15.276 133.617 15.416 134.214 15.416C134.625 15.416 135.036 15.3227 135.446 15.136C135.857 14.9493 136.193 14.716 136.454 14.436V5.728H141.718V19H136.79L136.65 17.992C135.437 18.8507 133.934 19.28 132.142 19.28Z" fill="#4390C8"/>
</svg>
