<svg width="117" height="100" viewBox="0 0 117 100" fill="none" xmlns="http://www.w3.org/2000/svg">
<path d="M89.5781 29.6875H104.203V100H89.5781V29.6875Z" fill="#B2C1C0"/>
<path d="M104.203 48.4375H89.5781L85.9219 45.3125H107.859L104.203 48.4375Z" fill="#B2C1C0"/>
<path d="M100.547 36.4062C100.547 35.4687 99.8156 34.5312 98.9016 34.0625C97.6219 33.4375 96.8906 32.8125 96.8906 32.8125C96.8906 32.8125 96.1594 33.4375 94.8797 34.0625C93.9656 34.5312 93.2344 35.4687 93.2344 36.4062C93.2344 37.0312 93.6 37.6562 94.1484 38.125V42.1875H99.6328V38.125C100.181 37.6562 100.547 37.0312 100.547 36.4062Z" fill="#3E4347"/>
<path d="M85.9219 42.1875H107.859V45.3125H85.9219V42.1875Z" fill="#E8E8E8"/>
<path d="M97.2563 2.5C96.525 2.5 95.7938 1.875 95.7938 1.25C95.7938 0.625 96.3422 0.15625 97.0734 0H96.8906C95.7937 0 95.0625 0.625 95.0625 1.5625C95.0625 2.5 95.7937 3.125 96.8906 3.125C97.9875 3.125 98.7188 2.5 98.7188 1.5625V1.40625C98.5359 2.03125 97.9875 2.5 97.2563 2.5Z" fill="#D3976E"/>
<path d="M95.9766 2.81255H97.8047V10.9375H95.9766V2.81255Z" fill="#D3976E"/>
<path d="M96.8906 7.8125L89.5781 29.6875H104.203L96.8906 7.8125Z" fill="#E8E8E8"/>
<path d="M96.8906 6.56245C97.9003 6.56245 98.7188 5.8629 98.7188 4.99995C98.7188 4.13701 97.9003 3.43745 96.8906 3.43745C95.881 3.43745 95.0625 4.13701 95.0625 4.99995C95.0625 5.8629 95.881 6.56245 96.8906 6.56245Z" fill="#D3976E"/>
<path d="M12.7969 29.6875H27.4219V100H12.7969V29.6875Z" fill="#B2C1C0"/>
<path d="M27.4219 48.4375H12.7969L9.14062 45.3125H31.0781L27.4219 48.4375Z" fill="#B2C1C0"/>
<path d="M23.7656 36.4062C23.7656 35.4687 23.0344 34.5312 22.1203 34.0625C20.8406 33.4375 20.1094 32.8125 20.1094 32.8125C20.1094 32.8125 19.3781 33.4375 18.0984 34.0625C17.1844 34.5312 16.4531 35.4687 16.4531 36.4062C16.4531 37.0312 16.8187 37.6562 17.3672 38.125V42.1875H22.8516V38.125C23.4 37.6562 23.7656 37.0312 23.7656 36.4062Z" fill="#3E4347"/>
<path d="M9.14062 42.1875H31.0781V45.3125H9.14062V42.1875Z" fill="#E8E8E8"/>
<path d="M20.475 2.5C19.7437 2.5 19.0125 1.875 19.0125 1.25C19.0125 0.625 19.5609 0.15625 20.2922 0H20.1094C19.0125 0 18.2812 0.625 18.2812 1.5625C18.2812 2.5 19.0125 3.125 20.1094 3.125C21.2062 3.125 21.9375 2.5 21.9375 1.5625V1.40625C21.7547 2.03125 21.2062 2.5 20.475 2.5Z" fill="#D3976E"/>
<path d="M19.1953 2.81255H21.0234V10.9375H19.1953V2.81255Z" fill="#D3976E"/>
<path d="M20.1094 7.8125L12.7969 29.6875H27.4219L20.1094 7.8125Z" fill="#E8E8E8"/>
<path d="M20.1094 6.56245C21.119 6.56245 21.9375 5.8629 21.9375 4.99995C21.9375 4.13701 21.119 3.43745 20.1094 3.43745C19.0997 3.43745 18.2812 4.13701 18.2812 4.99995C18.2812 5.8629 19.0997 6.56245 20.1094 6.56245Z" fill="#D3976E"/>
<path d="M57.5859 20.3125H59.4141V34.375H57.5859V20.3125Z" fill="#D3976E"/>
<path d="M75.8672 41.5625C64.1672 36.7188 58.5 32.8125 58.5 32.8125C58.5 32.8125 52.8328 36.7188 41.1328 41.5625C33.2719 44.8438 27.4219 51.25 27.4219 57.8125C27.4219 68.125 41.3156 76.5625 58.5 76.5625C75.6844 76.5625 89.5781 68.125 89.5781 57.8125C89.5781 51.25 83.7281 44.8438 75.8672 41.5625Z" fill="#FBBF67"/>
<path d="M58.5 31.25C60.5193 31.25 62.1562 29.8509 62.1562 28.125C62.1562 26.3991 60.5193 25 58.5 25C56.4807 25 54.8438 26.3991 54.8438 28.125C54.8438 29.8509 56.4807 31.25 58.5 31.25Z" fill="#FBBF67"/>
<path d="M60.3281 18.75C56.3063 18.75 53.0156 15.9375 53.0156 12.5C53.0156 9.375 55.7578 6.71875 59.4141 6.40625C59.0484 6.25 58.8656 6.25 58.5 6.25C53.3812 6.25 49.3594 9.6875 49.3594 14.0625C49.3594 18.4375 53.3812 21.875 58.5 21.875C63.6187 21.875 67.6406 18.4375 67.6406 14.0625C67.6406 13.75 67.6406 13.5938 67.4578 13.2812C67.0922 16.4062 63.9844 18.75 60.3281 18.75Z" fill="#D3976E"/>
<path d="M58.5 29.6875C56.8547 29.6875 55.3922 28.75 55.0266 27.3438C55.0266 27.6562 54.8438 27.8125 54.8438 28.125C54.8438 29.8438 56.4891 31.25 58.5 31.25C60.5109 31.25 62.1562 29.8438 62.1562 28.125C62.1562 27.8125 62.1563 27.6562 61.9734 27.3438C61.6078 28.75 60.1453 29.6875 58.5 29.6875Z" fill="#D3976E"/>
<path d="M57.5859 30.4688H59.4141V32.0312H57.5859V30.4688Z" fill="#D3976E"/>
<path d="M58.5 62.5C44.4234 62.5 32.7234 60 28.7016 52.3438C27.9703 54.0625 27.4219 55.9375 27.4219 57.8125C27.4219 68.125 41.3156 76.5625 58.5 76.5625C75.6844 76.5625 89.5781 68.125 89.5781 57.8125C89.5781 55.9375 89.0297 54.0625 88.2984 52.3438C84.2766 60 72.5766 62.5 58.5 62.5Z" fill="#D3976E"/>
<path d="M87.75 65.625H29.25C28.1531 65.625 27.4219 66.4062 27.4219 67.1875V98.4375C27.4219 99.2188 28.1531 100 29.25 100H87.75C88.6641 100 89.5781 99.2188 89.5781 98.4375V67.1875C89.5781 66.4062 88.6641 65.625 87.75 65.625Z" fill="#E8E8E8"/>
<path d="M44.7891 84.3751H31.9922V78.2813C31.4437 77.5001 31.0781 76.4063 31.0781 75.4688C31.0781 73.4376 32.3578 71.5626 34.5516 70.4688C35.4656 70.0001 36.0141 69.6876 36.0141 69.6876L38.5734 67.6563L41.1328 69.6876C41.1328 69.6876 41.6812 70.0001 42.4125 70.4688C44.4234 71.5626 45.8859 73.4376 45.8859 75.4688C45.8859 76.4063 45.5203 77.3438 44.9719 78.2813V84.3751H44.7891Z" fill="#B2C1C0"/>
<path d="M65.8125 88.4375C65.8125 86.5625 64.5328 84.6875 62.5219 83.75C59.7797 82.3437 58.5 81.25 58.5 81.25C58.5 81.25 57.2203 82.3437 54.4781 83.75C52.65 84.6875 51.1875 86.5625 51.1875 88.4375C51.1875 89.8437 51.9187 90.9375 53.0156 91.875V100H63.9844V91.875C65.0813 90.9375 65.8125 89.6875 65.8125 88.4375Z" fill="#3E4347"/>
<path d="M49.3594 99.9999H53.0156V91.8749C51.9187 90.9374 51.1875 89.6874 51.1875 88.4374C51.1875 86.5624 52.4672 84.6874 54.4781 83.7499C57.2203 82.3437 58.5 81.2499 58.5 81.2499C58.5 81.2499 59.7797 82.3437 62.5219 83.7499C64.35 84.6874 65.8125 86.5624 65.8125 88.4374C65.8125 89.8437 65.0812 90.9374 63.9844 91.8749V99.9999H67.6406V93.1249C68.9203 91.7187 69.4688 90.1562 69.4688 88.4374C69.4688 85.4687 67.4578 82.6562 64.35 81.0937C62.1563 79.9999 60.8766 79.0624 60.8766 79.0624L58.5 76.8749L55.9406 78.9062C55.9406 78.9062 54.8438 79.8437 52.4672 80.9374C49.3594 82.4999 47.5312 85.3124 47.5312 88.2812C47.5312 89.9999 48.2625 91.5624 49.3594 92.9687V99.9999Z" fill="#B2C1C0"/>
<path d="M42.0469 75.4687C42.0469 74.5312 41.3156 73.5937 40.4016 73.125C39.1219 72.5 38.3906 71.875 38.3906 71.875C38.3906 71.875 37.6594 72.5 36.3797 73.125C35.4656 73.5937 34.7344 74.5312 34.7344 75.4687C34.7344 76.0937 35.1 76.7188 35.6484 77.1875V81.25H41.1328V77.1875C41.6813 76.7188 42.0469 76.0937 42.0469 75.4687Z" fill="#3E4347"/>
<path d="M85.0078 84.3751H72.2109V78.2813C71.6625 77.5001 71.2969 76.4063 71.2969 75.4688C71.2969 73.4376 72.5766 71.5626 74.7703 70.4688C75.6844 70.0001 76.2328 69.6876 76.2328 69.6876L78.7922 67.6563L81.3516 69.6876C81.3516 69.6876 81.9 70.0001 82.6313 70.4688C84.6422 71.5626 86.1047 73.4376 86.1047 75.4688C86.1047 76.4063 85.7391 77.3438 85.1906 78.2813V84.3751H85.0078Z" fill="#B2C1C0"/>
<path d="M82.2656 75.4687C82.2656 74.5312 81.5344 73.5937 80.6203 73.125C79.3406 72.5 78.6094 71.875 78.6094 71.875C78.6094 71.875 77.8781 72.5 76.5984 73.125C75.6844 73.5937 74.9531 74.5312 74.9531 75.4687C74.9531 76.0937 75.3187 76.7188 75.8672 77.1875V81.25H81.3516V77.1875C81.9 76.7188 82.2656 76.0937 82.2656 75.4687Z" fill="#3E4347"/>
</svg>
