<svg width="60" height="58" viewBox="0 0 60 58" fill="none" xmlns="http://www.w3.org/2000/svg">
<path d="M54.375 14.4037C52.582 15.1514 50.6309 15.6895 48.6211 15.899C50.7077 14.7007 52.2703 12.8076 53.0156 10.5748C51.0576 11.7008 48.9126 12.4903 46.6758 12.9084C45.7409 11.9423 44.6102 11.1726 43.3541 10.6474C42.0981 10.1221 40.7436 9.85257 39.375 9.85549C33.8379 9.85549 29.3848 14.1942 29.3848 19.5184C29.3848 20.266 29.4785 21.0137 29.6309 21.733C21.3399 21.3139 13.9453 17.485 9.02931 11.6227C8.13356 13.1017 7.66416 14.7856 7.66994 16.4994C7.66994 19.8526 9.43361 22.8092 12.1231 24.5481C10.5381 24.4877 8.9903 24.0666 7.60548 23.319V23.4379C7.60548 28.1334 11.0391 32.0246 15.6152 32.9196C14.756 33.1353 13.8721 33.2457 12.9844 33.2481C12.334 33.2481 11.7188 33.1858 11.0977 33.1008C12.3633 36.9297 16.0488 39.7108 20.4375 39.8014C17.0039 42.4012 12.7031 43.9305 8.03322 43.9305C7.19533 43.9305 6.42189 43.9022 5.61916 43.8115C10.0488 46.5586 15.3047 48.1446 20.9649 48.1446C39.3399 48.1446 49.3945 33.4293 49.3945 20.6569C49.3945 20.2377 49.3945 19.8186 49.3652 19.3994C51.3106 18.0231 53.0156 16.3182 54.375 14.4037Z" fill="#484848"/>
</svg>
