<svg width="60" height="58" viewBox="0 0 60 58" fill="none" xmlns="http://www.w3.org/2000/svg">
<path d="M54.8939 15.0922C54.5922 13.9125 54.0006 12.8367 53.1784 11.9724C52.3563 11.1082 51.3323 10.4858 50.209 10.1675C46.0743 9 29.5 9 29.5 9C29.5 9 12.9257 9 8.79096 10.1613C7.6672 10.4785 6.64271 11.1006 5.82039 11.965C4.99807 12.8294 4.40686 13.9058 4.10614 15.086C3 19.4331 3 28.5 3 28.5C3 28.5 3 37.5669 4.10614 41.9078C4.7154 44.3049 6.51362 46.1928 8.79096 46.8325C12.9257 48 29.5 48 29.5 48C29.5 48 46.0743 48 50.209 46.8325C52.4923 46.1928 54.2846 44.3049 54.8939 41.9078C56 37.5669 56 28.5 56 28.5C56 28.5 56 19.4331 54.8939 15.0922ZM24.2355 36.8217V20.1783L37.9587 28.4379L24.2355 36.8217Z" fill="#484848"/>
</svg>
